<svg width="50" height="50" viewBox="0 0 50 50" fill="none" xmlns="http://www.w3.org/2000/svg">
<g opacity="0.75">
<path d="M29.9024 19.326C29.4164 19.326 28.9619 19.4588 28.5691 19.6868V19.3333C28.5691 17.863 27.3727 16.6667 25.9024 16.6667C25.4164 16.6667 24.9619 16.7995 24.5691 17.0275V13.3177C24.5691 11.8558 23.3799 10.6667 21.9182 10.6667C21.4384 10.6667 20.9892 10.7968 20.6006 11.0207V10.6823C20.6006 9.20333 19.3972 8 17.9182 8C16.4391 8 15.2357 9.20333 15.2357 10.6823V26.9865L12.4179 23.602C11.4117 22.394 9.61005 22.2288 8.40139 23.2337C7.27989 24.166 7.04105 25.7862 7.84589 27.0025L15.7456 38.9407C17.0134 40.8565 19.1416 42 21.4386 42H26.1881C29.7066 42 32.5691 39.1373 32.5691 35.6188V27.651V21.9927C32.5691 20.5223 31.3729 19.326 29.9024 19.326ZM31.2357 35.6188C31.2357 38.4022 28.9714 40.6667 26.1881 40.6667H21.4386C19.5902 40.6667 17.8777 39.7465 16.8577 38.205L8.95805 26.2668C8.52939 25.6188 8.65639 24.7557 9.25389 24.259C9.89755 23.7235 10.8576 23.8115 11.3932 24.4552L15.3901 29.2557C15.5699 29.4713 15.8652 29.551 16.1294 29.456C16.3932 29.3605 16.5692 29.1098 16.5692 28.829V10.6823C16.5692 9.9385 17.1744 9.33333 17.9184 9.33333C18.6622 9.33333 19.2674 9.9385 19.2674 10.6823V13.3177V25.8837C19.2674 26.2518 19.5659 26.5503 19.9341 26.5503C20.3022 26.5503 20.6007 26.2518 20.6007 25.8837V13.3177C20.6007 12.5912 21.1919 12 21.9184 12C22.6449 12 23.2359 12.5912 23.2359 13.3177V25.8837C23.2359 26.2518 23.5344 26.5503 23.9026 26.5503C24.2707 26.5503 24.5692 26.2518 24.5692 25.8837V19.3333C24.5692 18.5982 25.1674 18 25.9026 18C26.6377 18 27.2359 18.5982 27.2359 19.3333V21.9927V22V26.4728C27.2359 26.841 27.5344 27.1395 27.9026 27.1395C28.2707 27.1395 28.5692 26.841 28.5692 26.4728V22V21.9927C28.5692 21.2575 29.1674 20.6593 29.9026 20.6593C30.6377 20.6593 31.2359 21.2575 31.2359 21.9927V27.651V35.6188H31.2357Z" fill="#F8F8F8"/>
<path d="M36.4391 20.0697L37.7113 17.9493C37.9009 17.6337 37.7983 17.224 37.4826 17.0348C37.1669 16.8453 36.7574 16.9478 36.5681 17.2635L36.5341 17.32L36.5341 8.33332C36.5341 7.96515 36.2356 7.66665 35.8674 7.66665C35.4993 7.66665 35.2008 7.96515 35.2008 8.33332L35.2008 17.32L35.1669 17.2637C34.9774 16.9478 34.5679 16.8455 34.2524 17.035C34.0441 17.16 33.9286 17.3807 33.9286 17.6073C33.9286 17.724 33.9594 17.8423 34.0238 17.9497L35.2959 20.07C35.4164 20.2708 35.6333 20.3937 35.8676 20.3937C36.1019 20.3937 36.3186 20.2705 36.4391 20.0697Z" fill="#F8F8F8"/>
<path d="M39.2958 3.93006L38.0236 6.05039C37.9591 6.15773 37.9284 6.27606 37.9284 6.39273C37.9284 6.61923 38.0439 6.84006 38.2523 6.96506C38.5679 7.15456 38.9774 7.05206 39.1668 6.73639L39.2008 6.67989L39.2008 14.9997C39.2008 15.3679 39.4993 15.6664 39.8674 15.6664C40.2356 15.6664 40.5341 15.3679 40.5341 14.9997L40.5341 6.67989L40.5679 6.73623C40.7574 7.05206 41.1669 7.15439 41.4824 6.96489C41.7981 6.77556 41.9006 6.36589 41.7111 6.05039L40.4389 3.93006C40.3184 3.72923 40.1016 3.60639 39.8673 3.60639C39.6329 3.60639 39.4163 3.72923 39.2958 3.93006Z" fill="#F8F8F8"/>
</g>
</svg>
