<svg width="79" height="24" viewBox="0 0 79 24" fill="none" xmlns="http://www.w3.org/2000/svg">
<path d="M38.0173 0.637732C34.463 1.4015 32.3836 4.16092 32.3836 8.12759C32.3836 10.2218 32.843 11.774 33.8102 12.9812C36.1072 15.8145 41.4508 16.258 44.5215 13.8682C47.7373 11.3798 47.9308 5.3928 44.9084 2.43628C43.3609 0.908746 40.3869 0.12034 38.0173 0.637732ZM41.4024 1.84498C42.4421 2.80585 42.9015 4.72759 42.9015 8.02904C42.9015 11.4783 42.4179 13.3261 41.3057 14.287C39.6615 15.716 37.6063 14.7305 36.8567 12.1682C36.349 10.3696 36.3732 5.56527 36.9051 3.93918C37.437 2.28846 37.9206 1.62324 38.7911 1.22904C39.7099 0.834832 40.532 1.0073 41.4024 1.84498Z" fill="white"/>
<path d="M5.2063 7.65933L2.32898 14.6811H1.50689C1.07167 14.6811 0.708984 14.7796 0.708984 14.9275C0.708984 15.0753 1.55525 15.1738 2.76421 15.1738C3.97316 15.1738 4.81943 15.0753 4.81943 14.9275C4.81943 14.7796 4.38421 14.6811 3.87645 14.6811H2.90928L3.68301 12.8332L4.43257 10.9608L6.97137 11.0347L9.51018 11.1086L10.2839 12.7101C10.7191 13.597 11.0818 14.3854 11.0818 14.484C11.106 14.6072 10.7917 14.6811 10.3806 14.6811C9.99376 14.6811 9.65525 14.7796 9.65525 14.9275C9.65525 15.0753 10.9367 15.1738 13.0403 15.1738C15.1439 15.1738 16.4254 15.0753 16.4254 14.9275C16.4254 14.7796 16.1353 14.6811 15.7967 14.6811C15.1197 14.6811 15.5066 15.4448 9.82451 2.9289C9.22003 1.54919 8.66391 0.662232 8.4463 0.637594C8.18033 0.637594 7.18898 2.78107 5.2063 7.65933ZM8.03525 7.90571C8.66391 9.18687 9.17167 10.2956 9.17167 10.3695C9.17167 10.4434 8.20451 10.4927 6.99555 10.4927C5.81078 10.4927 4.81943 10.4188 4.81943 10.2956C4.81943 9.99991 6.63287 5.56513 6.75376 5.56513C6.8263 5.56513 7.4066 6.62455 8.03525 7.90571Z" fill="white"/>
<path d="M67.5642 7.65933L64.6869 14.6811H63.768C63.2603 14.6811 62.8492 14.7796 62.8492 14.9275C62.8492 15.0753 63.7439 15.1738 65.0254 15.1738C66.3069 15.1738 67.2015 15.0753 67.2015 14.9275C67.2015 14.7796 66.7663 14.6811 66.2585 14.6811H65.2913L66.0651 12.8332L66.8146 10.9854H69.3051H71.7955L72.6418 12.7101C73.1012 13.6463 73.488 14.484 73.488 14.5579C73.488 14.6318 73.1737 14.6811 72.7627 14.6811C72.3758 14.6811 72.0373 14.7796 72.0373 14.9275C72.0373 15.0753 73.3188 15.1738 75.4224 15.1738C77.526 15.1738 78.8074 15.0753 78.8074 14.9275C78.8074 14.7796 78.5173 14.6811 78.1788 14.6811C77.5018 14.6811 77.5501 14.755 73.0045 4.65354C71.8197 2.04194 71.0701 0.662232 70.8283 0.637594C70.5624 0.637594 69.5952 2.70716 67.5642 7.65933ZM70.0788 7.21586C70.5382 8.15209 71.046 9.26078 71.2152 9.67962L71.5537 10.4927H69.2809H67.008L68.0236 8.0289C68.5555 6.67383 69.0633 5.56513 69.1358 5.56513C69.2083 5.56513 69.6436 6.30426 70.0788 7.21586Z" fill="white"/>
<path d="M17.7311 1.10594C17.8278 1.25377 18.1663 1.37696 18.4565 1.37696H19.0126L18.9884 7.95522L18.9643 14.5581L18.3114 14.632C17.9245 14.6813 17.6344 14.8291 17.6344 14.9523C17.6344 15.1248 19.472 15.1987 23.0263 15.1248C28.1281 15.0509 28.4425 15.0262 29.3854 14.4842C30.6669 13.7204 31.1747 12.8088 31.1747 11.2813C31.1747 10.2958 31.0296 9.87696 30.546 9.26101C29.8448 8.42333 28.5875 7.78275 27.572 7.75811C27.0401 7.75811 27.1126 7.6842 28.0072 7.33927C29.458 6.77261 30.0866 5.83638 30.0625 4.30884C30.0383 2.92913 29.458 2.09145 28.0314 1.42623C26.9917 0.933477 17.4651 0.637825 17.7311 1.10594ZM25.3475 1.74652C26.7257 2.46101 27.0159 5.04797 25.9037 6.32913C25.3475 6.96971 24.9848 7.14217 23.9693 7.24072L22.712 7.36391V4.35812V1.37696H23.6792C24.2353 1.37696 24.9848 1.54942 25.3475 1.74652ZM25.1783 8.0784C26.9434 8.62043 27.9105 10.5422 27.3302 12.4393C26.895 13.9422 26.0971 14.5088 24.2837 14.632L22.712 14.7306V11.2567V7.78275H23.4616C23.8968 7.78275 24.6463 7.90594 25.1783 8.0784Z" fill="white"/>
<path d="M48.6803 1.10594C48.7771 1.25377 49.0672 1.37696 49.3332 1.37696C49.7684 1.37696 49.7926 1.5987 49.7926 8.02913V14.6813H49.1881C48.8496 14.6813 48.5836 14.8045 48.5836 14.9523C48.5836 15.1248 50.2036 15.1987 53.9756 15.1248C59.0774 15.0509 59.3917 15.0262 60.3347 14.4842C60.8666 14.1639 61.4953 13.5726 61.7129 13.203C62.269 12.2668 62.2448 10.5668 61.6403 9.5813C61.1084 8.69435 59.5851 7.78275 58.5696 7.75811C57.9651 7.75811 58.0135 7.70884 58.9565 7.33927C60.3589 6.79725 61.0359 5.83638 61.0359 4.45667C61.0359 3.15087 60.4072 2.19 59.0774 1.50014C58.2553 1.0813 57.5057 1.00739 53.3227 0.933478C49.8893 0.859566 48.5836 0.908841 48.6803 1.10594ZM56.1759 1.64797C57.6266 2.33783 57.9651 5.24507 56.732 6.50159C56.2968 6.94507 55.789 7.14217 54.8944 7.24072L53.6612 7.36391V4.35812V1.37696H54.6284C55.1362 1.37696 55.8374 1.50014 56.1759 1.64797ZM56.1033 8.05377C57.3123 8.42333 57.9893 9.21174 58.2794 10.4929C58.5696 11.7987 58.2311 13.1538 57.409 13.9422C56.9254 14.4103 56.466 14.5581 55.2329 14.632L53.6612 14.7306V11.2567V7.78275H54.4108C54.846 7.78275 55.5956 7.90594 56.1033 8.05377Z" fill="white"/>
<path d="M14.2493 19.5101C14.2493 20.2738 14.2009 20.3724 13.9108 20.126C12.9436 19.2883 11.1302 20.6434 11.4445 21.9245C11.6863 22.8854 12.6776 23.4521 13.5239 23.1318C14.0075 22.9347 14.2735 22.9347 14.4669 23.1318C14.6603 23.3289 14.7329 22.7376 14.7329 21.013C14.7329 19.584 14.6361 18.6231 14.4911 18.6231C14.3702 18.6231 14.2493 19.0173 14.2493 19.5101ZM13.9591 20.6434C14.1284 20.8158 14.2493 21.2347 14.2493 21.5796C14.2493 22.4173 13.8382 22.8115 12.992 22.8115C12.0973 22.8115 11.6138 21.8753 12.0248 20.9637C12.3391 20.2985 13.4272 20.1014 13.9591 20.6434Z" fill="white"/>
<path d="M16.1837 18.8696C16.1837 18.9928 16.2804 19.116 16.4013 19.116C16.5463 19.116 16.7156 18.9928 16.7881 18.8696C16.8607 18.7218 16.764 18.6232 16.5705 18.6232C16.3529 18.6232 16.1837 18.7218 16.1837 18.8696Z" fill="white"/>
<path d="M4.28749 19.6578C3.75555 20.1999 3.75555 20.3477 4.21495 20.3477C4.48092 20.3477 4.57764 20.6433 4.57764 21.5549C4.57764 22.8607 5.01286 23.4767 5.71405 23.181C6.10092 23.0086 6.07674 22.9593 5.5448 22.8361C5.01286 22.6883 4.94032 22.5158 4.86779 21.5057C4.79525 20.4709 4.84361 20.3477 5.27883 20.3477C5.56898 20.3477 5.78659 20.2245 5.78659 20.1013C5.78659 19.9535 5.56898 19.8549 5.32719 19.8549C5.06122 19.8549 4.81943 19.7071 4.77107 19.5346C4.72271 19.3129 4.57764 19.3375 4.28749 19.6578Z" fill="white"/>
<path d="M0.950811 20.2245C0.443049 20.8405 0.781557 21.4318 1.79708 21.7274C3.12693 22.097 3.07857 22.6883 1.74872 22.6637C0.491408 22.639 0.394691 22.984 1.57947 23.2057C2.25648 23.3289 2.54663 23.255 2.90932 22.8854C3.56215 22.2448 3.272 21.6535 2.20812 21.4071C1.67618 21.284 1.28932 21.0129 1.24096 20.7666C1.16842 20.4216 1.33768 20.3477 2.15977 20.3477C2.76424 20.3477 3.10275 20.2492 3.00603 20.1013C2.78842 19.7318 1.28932 19.8057 0.950811 20.2245Z" fill="white"/>
<path d="M7.28564 21.2594C7.35818 22.5159 7.43072 22.713 8.01101 23.0579C8.59131 23.3782 8.76057 23.3782 9.19579 23.1072C9.63101 22.8115 9.75191 22.8115 9.92116 23.1072C10.0421 23.3043 10.1388 22.713 10.1388 21.6289C10.1388 20.4956 10.0421 19.8797 9.89698 19.9782C9.77609 20.0521 9.65519 20.6681 9.65519 21.3333C9.65519 22.442 9.58265 22.5652 9.05072 22.713C7.96266 22.984 7.72087 22.713 7.72087 21.2101C7.72087 20.4217 7.62415 19.855 7.47907 19.855C7.30982 19.855 7.23728 20.3971 7.28564 21.2594Z" fill="white"/>
<path d="M16.1837 21.5798C16.1837 22.5653 16.2804 23.3044 16.4254 23.3044C16.5705 23.3044 16.6672 22.5653 16.6672 21.5798C16.6672 20.5943 16.5705 19.8552 16.4254 19.8552C16.2804 19.8552 16.1837 20.5943 16.1837 21.5798Z" fill="white"/>
<path d="M18.3839 20.4957C18.0937 20.8653 17.8761 21.3581 17.8761 21.6291C17.8761 22.245 18.94 23.3044 19.5686 23.3044C20.2698 23.3044 21.2612 22.2204 21.2612 21.4566C21.2612 19.9537 19.3027 19.3131 18.3839 20.4957ZM20.4874 20.6436C20.6567 20.816 20.7776 21.2349 20.7776 21.5798C20.7776 22.4175 20.3665 22.8117 19.5203 22.8117C18.6257 22.8117 18.1421 21.8755 18.5531 20.9639C18.8674 20.2986 19.9555 20.1015 20.4874 20.6436Z" fill="white"/>
</svg>
