<svg width="320" height="568" viewBox="0 0 320 568" fill="none" xmlns="http://www.w3.org/2000/svg">
<g clip-path="url(#clip0)">
<rect width="320" height="568" fill="#84CDCA"/>
<path d="M88.3794 357.263C156.667 268.992 223.645 182.412 275.247 358.662C292.027 415.971 306.662 447.034 319.333 459.088V567.316H0V451.729C28.9398 434.097 58.7795 395.525 88.3737 357.271L88.3775 357.266L88.3794 357.263Z" fill="#E8A87C"/>
<path d="M97.1827 -24.4301C137.976 -4.26589 195.088 65.099 97.1827 181.244C-25.1986 326.426 98.3189 386.055 159.51 414.86C209.905 438.584 283.421 456.642 260.279 568H-7.49262C-7.47568 382.848 -7.76288 129.88 -7.99377 -24.4301H97.1827Z" fill="#E47C61"/>
<path d="M284.24 252.994C257.596 309.898 199.487 406.379 284.24 478.684C300.601 492.641 312.274 505.343 320.36 516.736L320 0H177.47C162.777 21.8362 161.637 53.431 199.97 94.6901C284.24 185.394 310.884 196.09 284.24 252.994Z" fill="#C38D9D"/>
</g>
<defs>
<clipPath id="clip0">
<rect width="320" height="568" fill="white"/>
</clipPath>
</defs>
</svg>
