<svg width="97" height="17" viewBox="0 0 97 17" fill="none" xmlns="http://www.w3.org/2000/svg">
<path d="M0.782 0.899999H3.086V9.846L9.854 0.899999H12.032V13.5H9.728V4.572L2.96 13.5H0.782V0.899999ZM18.2828 0.899999H20.5868V9.846L27.3548 0.899999H29.5328V13.5H27.2288V4.572L20.4608 13.5H18.2828V0.899999ZM44.9096 2.88H40.7336V13.5H38.4116V2.88H34.2536V0.899999H44.9096V2.88ZM49.6457 0.899999H51.9497V9.846L58.7177 0.899999H60.8957V13.5H58.5917V4.572L51.8237 13.5H49.6457V0.899999ZM75.4805 10.584H69.1805L67.9385 13.5H65.5265L71.1965 0.899999H73.5005L79.1885 13.5H76.7405L75.4805 10.584ZM74.7065 8.748L72.3305 3.24L69.9725 8.748H74.7065ZM96.4005 11.52V16.182H94.2405V13.5H84.5745V16.182H82.3965L82.4145 11.52H82.9545C83.7465 11.484 84.2985 10.902 84.6105 9.774C84.9345 8.634 85.1325 7.008 85.2045 4.896L85.3485 0.899999H94.5825V11.52H96.4005ZM87.2565 5.112C87.1965 6.744 87.0645 8.106 86.8605 9.198C86.6565 10.278 86.3325 11.052 85.8885 11.52H92.2785V2.88H87.3465L87.2565 5.112Z" fill="#222222"/>
</svg>
